<?xml version="1.0" encoding="utf-8"?>
<!-- Generator: Adobe Illustrator 21.0.0, SVG Export Plug-In . SVG Version: 6.00 Build 0)  -->
<svg version="1.0" id="Layer_1" xmlns="http://www.w3.org/2000/svg" xmlns:xlink="http://www.w3.org/1999/xlink" x="0px" y="0px"
	 viewBox="0 0 95 27" style="enable-background:new 0 0 95 27;" xml:space="preserve">
<style type="text/css">
	.st0{fill-rule:evenodd;clip-rule:evenodd;fill:#FFFFFF;}
</style>
<g>
	<path class="st0" d="M4.5,9.8L1.9,20.1c-0.1,0.3-0.3,0.5-0.6,0.5H0.4c-0.2,0-0.4-0.1-0.4-0.3c0-0.1,0-0.1,0-0.2l3.6-14
		C4.1,4.5,5,3.7,6.6,3.7h10.2c0.2,0,0.4,0.1,0.4,0.3c0,0.1,0,0.1,0,0.2l-0.3,0.9c-0.1,0.3-0.3,0.5-0.6,0.5H5.6L5,7.9h10.7
		C15.9,7.9,16,8,16,8.2c0,0.1,0,0.1,0,0.2l-0.2,0.9c-0.1,0.3-0.3,0.5-0.6,0.5H4.5L4.5,9.8z M18.9,2.8c-0.2,0-0.4-0.1-0.4-0.3
		c0-0.1,0-0.1,0-0.2l0.2-0.9C18.9,1.1,19.1,1,19.4,1h0.9c0.2,0,0.4,0.1,0.4,0.3c0,0,0,0.1,0,0.2l-0.2,0.9c-0.1,0.3-0.3,0.5-0.6,0.5
		H18.9L18.9,2.8z M17.7,12.5l2.2-8.3c0-0.1,0-0.1,0-0.2c0-0.2-0.1-0.3-0.4-0.3h-0.9c-0.3,0-0.5,0.2-0.6,0.5h0l-2.2,8.3
		c0,0.1,0,0.1,0,0.2c0,0.2,0.1,0.3,0.4,0.3h0.9C17.4,13,17.6,12.9,17.7,12.5L17.7,12.5z M24.7,3.7l0.9-3.2c0-0.1,0-0.1,0-0.2
		c0-0.2-0.1-0.3-0.4-0.3h-0.9c-0.3,0-0.5,0.2-0.6,0.5l-0.9,3.2h-1.4c-0.3,0-0.5,0.2-0.6,0.5l-0.2,0.9c0,0.1,0,0.1,0,0.2
		c0,0.2,0.1,0.3,0.4,0.3h1.4L21,10.7c-0.1,0.3-0.1,0.6-0.1,0.9c0,1,0.6,1.4,1.8,1.4H31c0.3,0,0.5-0.2,0.6-0.5l0.3-0.9
		c0-0.1,0-0.1,0-0.2c0-0.2-0.1-0.3-0.4-0.3l-8.8,0l1.5-5.6H33c0.3,0,0.5-0.2,0.6-0.5l0.3-0.9c0-0.1,0-0.1,0-0.2
		c0-0.2-0.1-0.3-0.4-0.3H24.7L24.7,3.7z M35.8,3.7h9.7c1.2,0,1.8,0.5,1.8,1.4c0,0.3,0,0.6-0.1,0.9l-1.7,6.5
		c-0.1,0.3-0.3,0.5-0.6,0.5H34.7c-1.2,0-1.8-0.5-1.8-1.4c0-0.3,0-0.5,0.1-0.9l0.3-0.9c0.4-1.5,1.4-2.3,2.9-2.3H45l0.5-1.9H35.3
		c-0.2,0-0.4-0.1-0.4-0.3c0,0,0-0.1,0-0.2l0.3-0.9C35.3,3.9,35.5,3.7,35.8,3.7L35.8,3.7z M35.2,9.3l-0.5,1.9H44l0.5-1.9H35.2
		L35.2,9.3z M50.2,0c-0.3,0-0.5,0.2-0.6,0.5l-3.2,12.1c0,0.1,0,0.1,0,0.2c0,0.2,0.1,0.3,0.4,0.3H57c1.5,0,2.5-0.8,2.9-2.3l1.2-4.6
		c0.1-0.3,0.1-0.6,0.1-0.9c0-1-0.6-1.4-1.8-1.4h-8.8l0.9-3.3c0-0.1,0-0.1,0-0.2c0-0.2-0.1-0.3-0.4-0.3H50.2L50.2,0z M50.2,5.6l9.3,0
		l-1.5,5.6l-9.3,0L50.2,5.6L50.2,5.6z M64.1,5.6l-1.5,5.6l9.3,0l1.5-5.6L64.1,5.6L64.1,5.6z M73.3,3.7c1.2,0,1.8,0.5,1.8,1.4
		c0,0.3,0,0.6-0.1,0.9l-1.2,4.6c-0.4,1.5-1.4,2.3-2.9,2.3h-8.3c-1.2,0-1.8-0.5-1.8-1.4c0-0.3,0-0.6,0.1-0.9l1.2-4.6
		c0.4-1.5,1.4-2.3,2.9-2.3H73.3L73.3,3.7z M76.1,12.5l3.2-12.1c0-0.1,0-0.1,0-0.2C79.3,0.1,79.2,0,79,0h-0.9c-0.3,0-0.5,0.2-0.6,0.5
		h0l-3.2,12.1c0,0.1,0,0.1,0,0.2c0,0.2,0.1,0.3,0.4,0.3h0.9C75.8,13,76,12.9,76.1,12.5L76.1,12.5z M80.1,2.8c-0.2,0-0.4-0.1-0.4-0.3
		c0-0.1,0-0.1,0-0.2L80,1.4C80.1,1.1,80.3,1,80.6,1h0.9c0.2,0,0.4,0.1,0.4,0.3c0,0,0,0.1,0,0.2l-0.3,0.9c-0.1,0.3-0.3,0.5-0.6,0.5
		H80.1L80.1,2.8z M78.9,12.5c-0.1,0.3-0.3,0.5-0.6,0.5h-0.9c-0.2,0-0.4-0.1-0.4-0.3c0-0.1,0-0.1,0-0.2l2.2-8.3h0
		c0.1-0.3,0.3-0.5,0.6-0.5h0.9c0.2,0,0.4,0.1,0.4,0.3c0,0.1,0,0.1,0,0.2L78.9,12.5L78.9,12.5z M92.7,11.2l-10.7,0l1.5-5.6h10.7
		c0.3,0,0.5-0.2,0.6-0.5L95,4.2c0-0.1,0-0.1,0-0.2c0-0.2-0.1-0.3-0.4-0.3H84.5c-1.6,0-2.5,0.8-2.9,2.3l-1.2,4.6
		c-0.1,0.3-0.1,0.6-0.1,0.9c0,1,0.6,1.4,1.8,1.4h10.2c0.3,0,0.5-0.2,0.6-0.5l0.3-0.9c0-0.1,0-0.1,0-0.2
		C93.1,11.2,92.9,11.2,92.7,11.2z"/>
	<path class="st0" d="M5,18.7c-0.6,0-0.9-0.2-0.9-0.7c0-0.1,0-0.3,0.1-0.4l0.1-0.4c0.2-0.7,0.7-1.1,1.4-1.1h4.9c0.1,0,0.2,0,0.2,0.1
		c0,0,0,0.1,0,0.1l-0.1,0.4c0,0.1-0.1,0.2-0.3,0.2H5.2L5,17.8l4.2,0c0.6,0,0.9,0.2,0.9,0.7c0,0.1,0,0.3-0.1,0.4l-0.1,0.4
		c-0.2,0.7-0.7,1.1-1.4,1.1H3.6c-0.1,0-0.2,0-0.2-0.1c0,0,0-0.1,0-0.1l0.1-0.4c0-0.1,0.1-0.2,0.3-0.2h5.1l0.2-0.9L5,18.7L5,18.7z
		 M9.8,22.2h0.4c0.2,0,0.2-0.1,0.3-0.2l0.4-1.6h4.2c0.7,0,1.2-0.4,1.4-1.1l0.6-2.2c0-0.2,0.1-0.3,0.1-0.4c0-0.5-0.3-0.7-0.9-0.7
		h-4.9c-0.1,0-0.2,0.1-0.3,0.2L9.6,22c0,0,0,0,0,0.1C9.6,22.2,9.7,22.2,9.8,22.2L9.8,22.2z M15.6,19.6l-4.4,0l0.7-2.7l4.4,0
		L15.6,19.6L15.6,19.6z M18.5,16.9l-0.7,2.7l4.4,0l0.7-2.7L18.5,16.9L18.5,16.9z M22.9,16.1c0.6,0,0.9,0.2,0.9,0.7
		c0,0.1,0,0.3-0.1,0.4l-0.6,2.2c-0.2,0.7-0.7,1.1-1.4,1.1h-4c-0.6,0-0.9-0.2-0.9-0.7c0-0.1,0-0.3,0.1-0.4l0.6-2.2
		c0.2-0.7,0.7-1.1,1.4-1.1H22.9L22.9,16.1z M24.2,20.3l0.9-3.3l4,0l-0.2,0.7c0,0,0,0.1,0,0.1c0,0.1,0.1,0.1,0.2,0.1h0.4
		c0.1,0,0.2-0.1,0.3-0.2l0.1-0.4c0-0.2,0.1-0.3,0.1-0.4c0-0.5-0.3-0.7-0.9-0.7h-4.4c-0.1,0-0.2,0.1-0.3,0.2l-1.1,4c0,0,0,0.1,0,0.1
		c0,0.1,0.1,0.1,0.2,0.1h0.4C24.1,20.5,24.2,20.4,24.2,20.3L24.2,20.3z M32.4,16.1h4.2c0.1,0,0.2,0,0.2,0.1c0,0,0,0.1,0,0.1
		l-0.1,0.4c0,0.1-0.1,0.2-0.3,0.2h-4.2l-0.7,2.7l4.2,0c0.1,0,0.2,0,0.2,0.1c0,0,0,0.1,0,0.1l-0.1,0.4c0,0.1-0.1,0.2-0.3,0.2h-4
		c-0.6,0-0.9-0.2-0.9-0.7c0-0.1,0-0.3,0.1-0.4l0.7-2.4h-0.7c-0.1,0-0.2,0-0.2-0.1c0,0,0-0.1,0-0.1l0.1-0.4c0-0.1,0.1-0.2,0.3-0.2
		h0.7l0.4-1.5c0-0.1,0.1-0.2,0.3-0.2h0.4c0.1,0,0.2,0,0.2,0.1c0,0,0,0.1,0,0.1L32.4,16.1L32.4,16.1z M41.9,20.3
		c0,0.1-0.1,0.2-0.3,0.2h-0.4c-0.1,0-0.2,0-0.2-0.1c0,0,0-0.1,0-0.1l1.1-4c0-0.1,0.1-0.2,0.3-0.2h4.9c0.6,0,0.9,0.2,0.9,0.7
		c0,0.1,0,0.3-0.1,0.4l-0.8,3.1c0,0.1-0.1,0.2-0.3,0.2h-0.4c-0.1,0-0.2,0-0.2-0.1c0,0,0,0,0-0.1l0.9-3.3l-4.4,0L41.9,20.3L41.9,20.3
		z M54.2,16.3l-0.9,3.3l-4.4,0l0.9-3.3c0,0,0-0.1,0-0.1c0-0.1-0.1-0.1-0.2-0.1h-0.4c-0.1,0-0.2,0.1-0.3,0.2l-0.8,3.1
		c0,0.2-0.1,0.3-0.1,0.4c0,0.5,0.3,0.7,0.9,0.7h4.9c0.1,0,0.2-0.1,0.3-0.2l1.1-4c0,0,0-0.1,0-0.1c0-0.1-0.1-0.1-0.2-0.1h-0.4
		C54.3,16.1,54.2,16.1,54.2,16.3L54.2,16.3z M57.7,16.1h4.2c0.1,0,0.2,0,0.2,0.1c0,0,0,0.1,0,0.1l-0.1,0.4c0,0.1-0.1,0.2-0.3,0.2
		h-4.2l-0.7,2.7l4.2,0c0.1,0,0.2,0,0.2,0.1c0,0,0,0.1,0,0.1l-0.1,0.4c0,0.1-0.1,0.2-0.3,0.2h-4c-0.6,0-0.9-0.2-0.9-0.7
		c0-0.1,0-0.3,0.1-0.4l0.7-2.4h-0.7c-0.1,0-0.2,0-0.2-0.1c0,0,0-0.1,0-0.1l0.1-0.4c0-0.1,0.1-0.2,0.3-0.2h0.7l0.4-1.5
		c0-0.1,0.1-0.2,0.3-0.2h0.4c0.1,0,0.2,0,0.2,0.1c0,0,0,0.1,0,0.1L57.7,16.1L57.7,16.1z M62.6,20.3l0.9-3.3l4,0l-0.2,0.7
		c0,0,0,0.1,0,0.1c0,0.1,0.1,0.1,0.2,0.1h0.4c0.1,0,0.2-0.1,0.3-0.2l0.1-0.4c0-0.2,0.1-0.3,0.1-0.4c0-0.5-0.3-0.7-0.9-0.7H63
		c-0.1,0-0.2,0.1-0.3,0.2l-1.1,4c0,0,0,0.1,0,0.1c0,0.1,0.1,0.1,0.2,0.1h0.4C62.4,20.5,62.5,20.4,62.6,20.3L62.6,20.3z M69.3,15.6
		c-0.1,0-0.2,0-0.2-0.1c0,0,0-0.1,0-0.1l0.1-0.4c0-0.1,0.1-0.2,0.3-0.2H70c0.1,0,0.2,0,0.2,0.1c0,0,0,0,0,0.1l-0.1,0.4
		c0,0.1-0.1,0.2-0.3,0.2H69.3L69.3,15.6z M68.8,20.3c0,0.1-0.1,0.2-0.3,0.2H68c-0.1,0-0.2,0-0.2-0.1c0,0,0-0.1,0-0.1l1.1-4h0
		c0-0.1,0.1-0.2,0.3-0.2h0.4c0.1,0,0.2,0,0.2,0.1c0,0,0,0.1,0,0.1L68.8,20.3L68.8,20.3z M72.1,16.1l0.4-1.5c0,0,0-0.1,0-0.1
		c0-0.1-0.1-0.1-0.2-0.1h-0.4c-0.1,0-0.2,0.1-0.3,0.2l-0.4,1.5h-0.7c-0.1,0-0.2,0.1-0.3,0.2l-0.1,0.4c0,0,0,0.1,0,0.1
		c0,0.1,0.1,0.1,0.2,0.1H71l-0.7,2.4c0,0.2-0.1,0.3-0.1,0.4c0,0.5,0.3,0.7,0.9,0.7h4c0.1,0,0.2-0.1,0.3-0.2l0.1-0.4c0,0,0-0.1,0-0.1
		c0-0.1-0.1-0.1-0.2-0.1l-4.2,0l0.7-2.7h4.2c0.1,0,0.2-0.1,0.3-0.2l0.1-0.4c0,0,0-0.1,0-0.1c0-0.1-0.1-0.1-0.2-0.1H72.1L72.1,16.1z
		 M77.5,15.6c-0.1,0-0.2,0-0.2-0.1c0,0,0-0.1,0-0.1l0.1-0.4c0-0.1,0.1-0.2,0.3-0.2h0.4c0.1,0,0.2,0,0.2,0.1c0,0,0,0,0,0.1l-0.1,0.4
		c0,0.1-0.1,0.2-0.3,0.2H77.5L77.5,15.6z M76.9,20.3c0,0.1-0.1,0.2-0.3,0.2h-0.4c-0.1,0-0.2,0-0.2-0.1c0,0,0-0.1,0-0.1l1.1-4h0
		c0-0.1,0.1-0.2,0.3-0.2h0.4c0.1,0,0.2,0,0.2,0.1c0,0,0,0.1,0,0.1L76.9,20.3L76.9,20.3z M79.3,16.9l-0.7,2.7l4.4,0l0.7-2.7
		L79.3,16.9L79.3,16.9z M83.8,16.1h-4c-0.7,0-1.2,0.4-1.4,1.1l-0.6,2.2c0,0.2-0.1,0.3-0.1,0.4c0,0.5,0.3,0.7,0.9,0.7h4
		c0.7,0,1.2-0.4,1.4-1.1l0.6-2.2c0-0.2,0.1-0.3,0.1-0.4C84.6,16.3,84.3,16.1,83.8,16.1L83.8,16.1z M85.3,20.3c0,0.1-0.1,0.2-0.3,0.2
		h-0.4c-0.1,0-0.2,0-0.2-0.1c0,0-0.1-0.1-0.1-0.1l1.2-4c0-0.1,0.1-0.2,0.3-0.2h4.9c0.6,0,0.9,0.2,0.9,0.7c0,0.1,0,0.3-0.1,0.4
		l-0.8,3.1c0,0.1-0.1,0.2-0.3,0.2h-0.4c-0.1,0-0.2,0-0.2-0.1c0,0,0,0,0-0.1l0.9-3.3l-4.4,0L85.3,20.3z"/>
</g>
</svg>
